<svg xmlns="http://www.w3.org/2000/svg" width="64" height="64" xml:space="preserve"><path fill="#AAB2BD" d="M37.992 7.016v1H.992v-1a2 2 0 0 1 2-2h33c1.11 0 2 .89 2 2z"/>
  <path fill="#545C66" d="M4.002 8.016v29.98h-1.99l-1-1V8.016z"/>
  <path fill="#AAB2BD" d="M63.003 28.004v1H26.003v-1a2 2 0 0 1 2-2h33c1.109 0 2 .891 2 2z"/>
  <path fill="#545C66" d="M29.013 29.004v29.98h-1.991l-1-1.002V29.004z"/>
  <path fill="#656D78" d="M4.002 8.018h34.007v29.98H4.002z"/>
  <path fill="#656D78" d="M63.008 28.998H29.001v29.984h33.007l1-1z"/>
  <path fill="#5D9CEC" d="M26.003 26.004h12.006v11.994H26.003zM28.004 14.02H8.001a1 1 0 1 1 0-2h20.003a1 1 0 1 1 0 2z"/>
  <path fill="#A0D468"
        d="M24.004 18.02H10.001a1 1 0 1 1 0-2h14.003a1 1 0 1 1 0 2zM21.002 30.017H10.001a1 1 0 1 1 0-2h11.001a1 1 0 1 1 0 2zM30.004 18.02h-2a1 1 0 1 1 0-2h2a1 1 0 1 1 0 2z"/>
  <path fill="#5D9CEC" d="M14.001 34.003h-6a1 1 0 1 1 0-2h6a1 1 0 1 1 0 2z"/>
  <path fill="#FFCE54" d="M21.994 26.016h-9.993a1 1 0 1 1 0-2h9.993a1 1 0 1 1 0 2z"/>
  <path fill="#ED5565" d="M17.99 22.014h-5.989a1 1 0 1 1 0-2h5.989a1 1 0 1 1 0 2z"/>
  <path fill="#5D9CEC" d="M53.003 35H41.008a1 1 0 1 1 0-2h11.995a1 1 0 1 1 0 2z"/>
  <path fill="#A0D468"
        d="M49.003 39h-7.997a1 1 0 1 1 0-2h7.997a1 1 0 1 1 0 2zM46.001 50.997H35a1 1 0 1 1 0-2h11.001a1 1 0 1 1 0 2zM55.003 39h-2a1 1 0 1 1 0-2h2a1 1 0 1 1 0 2z"/>
  <path fill="#5D9CEC" d="M39 54.983h-6a1 1 0 1 1 0-2h6a1 1 0 1 1 0 2z"/>
  <path fill="#FFCE54" d="M48.995 46.996H37a1 1 0 1 1 0-2h11.995a1 1 0 1 1 0 2z"/>
  <path fill="#ED5565" d="M42.989 42.994H37a1 1 0 1 1 0-2h5.989a1 1 0 1 1 0 2z"/>
  <path fill="#4A89DC" d="M33.999 33.014h-3.994a1 1 0 1 1 0-2h3.994a1 1 0 1 1 0 2z"/>
  <path fill="#4A89DC" d="M32.002 35.013a1 1 0 0 1-1-1v-3.998a1 1 0 1 1 2 0v3.998a1 1 0 0 1-1 1z"/>
  <circle fill="#545C66" cx="2.012" cy="36.996" r="1"/>
  <circle fill="#545C66" cx="27.022" cy="57.982" r="1"/>
  <circle fill="#656D78" cx="62.008" cy="57.982" r="1"/></svg>
